<svg aria-hidden="true" style="position: absolute; width: 0; height: 0; overflow: hidden;" version="1.1" xmlns="http://www.w3.org/2000/svg" xmlns:xlink="http://www.w3.org/1999/xlink">
<defs>
<symbol id="icon-linkedin" viewBox="0 0 32 32">
<path fill="#f4f4fd" style="fill: var(--color1, #f4f4fd)" d="M32.013 32.021h0.008v-11.748c0-5.744-1.237-10.171-7.953-10.171-3.228 0-5.395 1.773-6.28 3.452h-0.094v-2.914h-6.366v21.38h6.632v-10.587c0-2.786 0.528-5.48 3.979-5.48 3.402 0 3.452 3.18 3.452 5.66v10.407h6.624zM0.528 10.643h6.638v21.378h-6.638v-21.378zM3.845 0c-2.121 0-3.842 1.721-3.842 3.842s1.721 3.883 3.842 3.883c2.123 0 3.846-1.761 3.846-3.883s-1.727-3.842-3.849-3.842z"></path>
</symbol>
<symbol id="icon-facebook" viewBox="0 0 32 32">
<path fill="#f4f4fd" style="fill: var(--color1, #f4f4fd)" d="M21.344 5.317h2.922v-5.091c-1.239-0.144-2.674-0.226-4.128-0.226-0.046 0-0.092 0-0.138 0l0.007-0c-4.215 0-7.099 2.652-7.099 7.525v4.483h-4.653v5.692h4.651v14.321h5.702v-14.319h4.463l0.708-5.694h-5.173v-3.923c0.002-1.645 0.444-2.77 2.738-2.77z"></path>
</symbol>
<symbol id="icon-twitter" viewBox="0 0 32 32">
<path fill="#f4f4fd" style="fill: var(--color1, #f4f4fd)" d="M32.021 6.082c-1.1 0.494-2.377 0.858-3.714 1.030l-0.068 0.007c1.361-0.817 2.383-2.080 2.875-3.582l0.013-0.046c-1.198 0.723-2.593 1.275-4.079 1.575l-0.084 0.014c-1.201-1.28-2.903-2.077-4.791-2.077-3.625 0-6.564 2.939-6.564 6.564v0c0 0.52 0.044 1.021 0.152 1.497-5.472-0.276-10.285-2.88-13.504-6.833l-0.027-0.034c-0.563 0.949-0.896 2.092-0.896 3.313 0 2.266 1.146 4.264 2.89 5.446l0.023 0.015c-1.093-0.030-2.11-0.325-2.999-0.823l0.033 0.017v0.072c0.004 3.166 2.238 5.809 5.216 6.443l0.043 0.008c-0.501 0.137-1.076 0.216-1.67 0.216-0.018 0-0.036-0-0.054-0l0.003 0c-0.031 0.001-0.067 0.001-0.103 0.001-0.403 0-0.797-0.041-1.177-0.119l0.038 0.006c0.874 2.625 3.276 4.499 6.125 4.573l0.009 0c-2.216 1.746-5.047 2.8-8.125 2.8-0.005 0-0.010 0-0.015 0h0.001c-0.538 0-1.055-0.024-1.571-0.090 2.828 1.847 6.291 2.946 10.010 2.946 0.021 0 0.042-0 0.064-0h-0.003c12.080 0 18.684-10.006 18.684-18.68 0-0.29-0.010-0.57-0.024-0.849 1.3-0.938 2.392-2.068 3.26-3.361l0.030-0.047z"></path>
</symbol>
<symbol id="icon-instagram" viewBox="0 0 32 32">
<path fill="#f4f4fd" style="fill: var(--color1, #f4f4fd)" d="M31.989 9.414c-0.074-1.701-0.35-2.872-0.744-3.885-0.424-1.113-1.054-2.061-1.85-2.841l-0.001-0.001c-0.78-0.792-1.725-1.418-2.78-1.825l-0.054-0.018c-1.021-0.394-2.181-0.67-3.883-0.745-1.717-0.080-2.263-0.1-6.606-0.1-4.349 0-4.893 0.020-6.6 0.094-1.701 0.074-2.87 0.35-3.883 0.745-1.113 0.424-2.061 1.054-2.841 1.85l-0.001 0.001c-0.792 0.78-1.42 1.725-1.827 2.78l-0.018 0.054c-0.394 1.021-0.668 2.181-0.745 3.883-0.080 1.715-0.1 2.261-0.1 6.606 0 4.349 0.020 4.893 0.094 6.6 0.074 1.701 0.35 2.872 0.745 3.885 0.406 1.077 1.039 2.039 1.851 2.84 0.801 0.813 1.771 1.445 2.834 1.845 1.021 0.394 2.181 0.67 3.885 0.744 1.707 0.076 2.251 0.094 6.6 0.094 4.347 0 4.891-0.020 6.598-0.094 1.701-0.074 2.872-0.35 3.885-0.744 2.158-0.85 3.835-2.527 4.666-4.63l0.019-0.055c0.394-1.021 0.67-2.181 0.744-3.885 0.076-1.707 0.094-2.251 0.094-6.6 0-4.347-0.006-4.891-0.080-6.598zM29.107 22.487c-0.070 1.565-0.332 2.41-0.552 2.972-0.551 1.401-1.639 2.49-3.004 3.029l-0.036 0.013c-0.562 0.218-1.413 0.48-2.97 0.548-1.689 0.076-2.195 0.094-6.468 0.094s-4.785-0.020-6.468-0.094c-1.565-0.068-2.41-0.33-2.972-0.55-0.721-0.269-1.336-0.677-1.838-1.194l-0.001-0.001c-0.517-0.504-0.924-1.118-1.183-1.805l-0.011-0.034c-0.22-0.562-0.48-1.413-0.55-2.97-0.074-1.689-0.094-2.197-0.094-6.468 0-4.273 0.020-4.785 0.094-6.468 0.070-1.565 0.332-2.41 0.55-2.972 0.256-0.694 0.664-1.325 1.201-1.839 0.52-0.532 1.145-0.939 1.841-1.195 0.56-0.22 1.413-0.48 2.97-0.55 1.689-0.074 2.195-0.094 6.468-0.094 4.279 0 4.783 0.020 6.468 0.094 1.563 0.070 2.408 0.332 2.97 0.55 0.694 0.256 1.327 0.662 1.841 1.195 0.53 0.52 0.937 1.145 1.193 1.841 0.22 0.56 0.482 1.411 0.55 2.97 0.076 1.689 0.094 2.195 0.094 6.468s-0.018 4.773-0.092 6.46z"></path>
<path fill="#f4f4fd" style="fill: var(--color1, #f4f4fd)" d="M16.070 7.787c-4.465 0.102-8.046 3.745-8.046 8.225s3.581 8.124 8.036 8.225l0.009 0c4.465-0.102 8.046-3.745 8.046-8.225s-3.581-8.124-8.036-8.225l-0.009-0zM16.070 21.35c-2.948 0-5.337-2.39-5.337-5.337s2.39-5.337 5.337-5.337v0c2.948 0 5.337 2.39 5.337 5.337s-2.39 5.337-5.337 5.337v0zM26.541 7.463c0 1.061-0.86 1.921-1.921 1.921s-1.921-0.86-1.921-1.921v0c0-1.061 0.86-1.921 1.921-1.921s1.921 0.86 1.921 1.921v0z"></path>
</symbol>
<symbol id="icon-close" viewBox="0 0 32 32">
<path d="M32.056 3.23l-3.23-3.23-12.798 12.798-12.798-12.798-3.23 3.23 12.798 12.798-12.798 12.798 3.23 3.23 12.798-12.798 12.798 12.798 3.23-3.23-12.798-12.798 12.798-12.798z"></path>
</symbol>
</defs>
</svg>
